<svg id="Spotify" data-name="Spotify Icon" xmlns="http://www.w3.org/2000/svg" viewBox="0 0 512 512">
    <defs>
        <style>
            .cls-1 {
                fill: #fff;
            }
        </style>
    </defs>
    <g id="g10">
        <g id="g12">
            <path id="path14" class="cls-1" d="M407.56,227c-82.52-49-218.64-53.51-297.41-29.6a23.95,23.95,0,0,1-13.9-45.83C186.68,124.07,337,129.37,432,185.77A23.94,23.94,0,0,1,407.56,227Zm-2.7,72.58a20,20,0,0,1-27.46,6.58c-68.8-42.29-173.7-54.54-255.09-29.84a20,20,0,1,1-11.6-38.19c93-28.21,208.56-14.54,287.58,34A20,20,0,0,1,404.86,299.53Zm-31.33,69.71a15.94,15.94,0,0,1-21.94,5.31c-60.12-36.74-135.78-45-224.89-24.68a16,16,0,1,1-7.11-31.1c97.52-22.3,181.17-12.7,248.65,28.53A16,16,0,0,1,373.53,369.24ZM256.13,0C114.74,0,.13,114.62.13,256s114.61,256,256,256,256-114.61,256-256S397.51,0,256.13,0" transform="translate(-0.13)"/>
        </g>
    </g>
</svg>
